<?xml version="1.0" encoding="utf-8" standalone="no"?>
<!DOCTYPE svg PUBLIC "-//W3C//DTD SVG 1.1//EN"
  "http://www.w3.org/Graphics/SVG/1.1/DTD/svg11.dtd">
<svg xmlns:xlink="http://www.w3.org/1999/xlink" width="460.8pt" height="345.6pt" viewBox="0 0 460.8 345.6" xmlns="http://www.w3.org/2000/svg" version="1.1">
 <metadata>
  <rdf:RDF xmlns:dc="http://purl.org/dc/elements/1.1/" xmlns:cc="http://creativecommons.org/ns#" xmlns:rdf="http://www.w3.org/1999/02/22-rdf-syntax-ns#">
   <cc:Work>
    <dc:type rdf:resource="http://purl.org/dc/dcmitype/StillImage"/>
    <dc:date>2024-06-29T17:16:42.106422</dc:date>
    <dc:format>image/svg+xml</dc:format>
    <dc:creator>
     <cc:Agent>
      <dc:title>Matplotlib v3.6.3, https://matplotlib.org/</dc:title>
     </cc:Agent>
    </dc:creator>
   </cc:Work>
  </rdf:RDF>
 </metadata>
 <defs>
  <style type="text/css">*{stroke-linejoin: round; stroke-linecap: butt}</style>
 </defs>
 <g id="figure_1">
  <g id="patch_1">
   <path d="M 0 345.6 
L 460.8 345.6 
L 460.8 0 
L 0 0 
z
" style="fill: #ffffff"/>
  </g>
  <g id="axes_1">
   <g id="patch_2">
    <path d="M 57.6 307.584 
L 414.72 307.584 
L 414.72 41.472 
L 57.6 41.472 
z
" style="fill: #ffffff"/>
   </g>
   <g id="PathCollection_1">
    <defs>
     <path id="m11025f064b" d="M 0 3 
C 0.795609 3 1.55874 2.683901 2.12132 2.12132 
C 2.683901 1.55874 3 0.795609 3 0 
C 3 -0.795609 2.683901 -1.55874 2.12132 -2.12132 
C 1.55874 -2.683901 0.795609 -3 0 -3 
C -0.795609 -3 -1.55874 -2.683901 -2.12132 -2.12132 
C -2.683901 -1.55874 -3 -0.795609 -3 0 
C -3 0.795609 -2.683901 1.55874 -2.12132 2.12132 
C -1.55874 2.683901 -0.795609 3 0 3 
z
" style="stroke: #1f77b4"/>
    </defs>
    <g clip-path="url(#p955c17e193)">
     <use xlink:href="#m11025f064b" x="73.832727" y="295.488" style="fill: #1f77b4; stroke: #1f77b4"/>
     <use xlink:href="#m11025f064b" x="94.123636" y="295.488" style="fill: #1f77b4; stroke: #1f77b4"/>
     <use xlink:href="#m11025f064b" x="114.414545" y="295.488" style="fill: #1f77b4; stroke: #1f77b4"/>
     <use xlink:href="#m11025f064b" x="134.705455" y="295.488" style="fill: #1f77b4; stroke: #1f77b4"/>
     <use xlink:href="#m11025f064b" x="154.996364" y="295.487973" style="fill: #1f77b4; stroke: #1f77b4"/>
     <use xlink:href="#m11025f064b" x="175.287273" y="295.458145" style="fill: #1f77b4; stroke: #1f77b4"/>
     <use xlink:href="#m11025f064b" x="195.578182" y="291.057081" style="fill: #1f77b4; stroke: #1f77b4"/>
     <use xlink:href="#m11025f064b" x="215.869091" y="206.490606" style="fill: #1f77b4; stroke: #1f77b4"/>
     <use xlink:href="#m11025f064b" x="236.16" y="53.568" style="fill: #1f77b4; stroke: #1f77b4"/>
     <use xlink:href="#m11025f064b" x="256.450909" y="206.490606" style="fill: #1f77b4; stroke: #1f77b4"/>
     <use xlink:href="#m11025f064b" x="276.741818" y="291.057081" style="fill: #1f77b4; stroke: #1f77b4"/>
     <use xlink:href="#m11025f064b" x="297.032727" y="295.458145" style="fill: #1f77b4; stroke: #1f77b4"/>
     <use xlink:href="#m11025f064b" x="317.323636" y="295.487973" style="fill: #1f77b4; stroke: #1f77b4"/>
     <use xlink:href="#m11025f064b" x="337.614545" y="295.488" style="fill: #1f77b4; stroke: #1f77b4"/>
     <use xlink:href="#m11025f064b" x="357.905455" y="295.488" style="fill: #1f77b4; stroke: #1f77b4"/>
     <use xlink:href="#m11025f064b" x="378.196364" y="295.488" style="fill: #1f77b4; stroke: #1f77b4"/>
     <use xlink:href="#m11025f064b" x="398.487273" y="295.488" style="fill: #1f77b4; stroke: #1f77b4"/>
    </g>
   </g>
   <g id="PathCollection_2">
    <defs>
     <path id="m93c59196d9" d="M 0 3 
C 0.795609 3 1.55874 2.683901 2.12132 2.12132 
C 2.683901 1.55874 3 0.795609 3 0 
C 3 -0.795609 2.683901 -1.55874 2.12132 -2.12132 
C 1.55874 -2.683901 0.795609 -3 0 -3 
C -0.795609 -3 -1.55874 -2.683901 -2.12132 -2.12132 
C -2.683901 -1.55874 -3 -0.795609 -3 0 
C -3 0.795609 -2.683901 1.55874 -2.12132 2.12132 
C -1.55874 2.683901 -0.795609 3 0 3 
z
" style="stroke: #ff7f0e"/>
    </defs>
    <g clip-path="url(#p955c17e193)">
     <use xlink:href="#m93c59196d9" x="73.832727" y="295.488" style="fill: #ff7f0e; stroke: #ff7f0e"/>
     <use xlink:href="#m93c59196d9" x="94.123636" y="295.488" style="fill: #ff7f0e; stroke: #ff7f0e"/>
     <use xlink:href="#m93c59196d9" x="114.414545" y="295.487996" style="fill: #ff7f0e; stroke: #ff7f0e"/>
     <use xlink:href="#m93c59196d9" x="134.705455" y="295.487098" style="fill: #ff7f0e; stroke: #ff7f0e"/>
     <use xlink:href="#m93c59196d9" x="154.996364" y="295.406845" style="fill: #ff7f0e; stroke: #ff7f0e"/>
     <use xlink:href="#m93c59196d9" x="175.287273" y="292.800512" style="fill: #ff7f0e; stroke: #ff7f0e"/>
     <use xlink:href="#m93c59196d9" x="195.578182" y="262.747688" style="fill: #ff7f0e; stroke: #ff7f0e"/>
     <use xlink:href="#m93c59196d9" x="215.869091" y="148.756103" style="fill: #ff7f0e; stroke: #ff7f0e"/>
     <use xlink:href="#m93c59196d9" x="236.16" y="53.568" style="fill: #ff7f0e; stroke: #ff7f0e"/>
     <use xlink:href="#m93c59196d9" x="256.450909" y="148.756103" style="fill: #ff7f0e; stroke: #ff7f0e"/>
     <use xlink:href="#m93c59196d9" x="276.741818" y="262.747688" style="fill: #ff7f0e; stroke: #ff7f0e"/>
     <use xlink:href="#m93c59196d9" x="297.032727" y="292.800512" style="fill: #ff7f0e; stroke: #ff7f0e"/>
     <use xlink:href="#m93c59196d9" x="317.323636" y="295.406845" style="fill: #ff7f0e; stroke: #ff7f0e"/>
     <use xlink:href="#m93c59196d9" x="337.614545" y="295.487098" style="fill: #ff7f0e; stroke: #ff7f0e"/>
     <use xlink:href="#m93c59196d9" x="357.905455" y="295.487996" style="fill: #ff7f0e; stroke: #ff7f0e"/>
     <use xlink:href="#m93c59196d9" x="378.196364" y="295.488" style="fill: #ff7f0e; stroke: #ff7f0e"/>
     <use xlink:href="#m93c59196d9" x="398.487273" y="295.488" style="fill: #ff7f0e; stroke: #ff7f0e"/>
    </g>
   </g>
   <g id="PathCollection_3">
    <defs>
     <path id="mb34a24f2b6" d="M 0 3 
C 0.795609 3 1.55874 2.683901 2.12132 2.12132 
C 2.683901 1.55874 3 0.795609 3 0 
C 3 -0.795609 2.683901 -1.55874 2.12132 -2.12132 
C 1.55874 -2.683901 0.795609 -3 0 -3 
C -0.795609 -3 -1.55874 -2.683901 -2.12132 -2.12132 
C -2.683901 -1.55874 -3 -0.795609 -3 0 
C -3 0.795609 -2.683901 1.55874 -2.12132 2.12132 
C -1.55874 2.683901 -0.795609 3 0 3 
z
" style="stroke: #2ca02c"/>
    </defs>
    <g clip-path="url(#p955c17e193)">
     <use xlink:href="#mb34a24f2b6" x="73.832727" y="295.487973" style="fill: #2ca02c; stroke: #2ca02c"/>
     <use xlink:href="#mb34a24f2b6" x="94.123636" y="295.486842" style="fill: #2ca02c; stroke: #2ca02c"/>
     <use xlink:href="#mb34a24f2b6" x="114.414545" y="295.458145" style="fill: #2ca02c; stroke: #2ca02c"/>
     <use xlink:href="#mb34a24f2b6" x="134.705455" y="295.020985" style="fill: #2ca02c; stroke: #2ca02c"/>
     <use xlink:href="#mb34a24f2b6" x="154.996364" y="291.057081" style="fill: #2ca02c; stroke: #2ca02c"/>
     <use xlink:href="#mb34a24f2b6" x="175.287273" y="269.98982" style="fill: #2ca02c; stroke: #2ca02c"/>
     <use xlink:href="#mb34a24f2b6" x="195.578182" y="206.490606" style="fill: #2ca02c; stroke: #2ca02c"/>
     <use xlink:href="#mb34a24f2b6" x="215.869091" y="107.080515" style="fill: #2ca02c; stroke: #2ca02c"/>
     <use xlink:href="#mb34a24f2b6" x="236.16" y="53.568" style="fill: #2ca02c; stroke: #2ca02c"/>
     <use xlink:href="#mb34a24f2b6" x="256.450909" y="107.080515" style="fill: #2ca02c; stroke: #2ca02c"/>
     <use xlink:href="#mb34a24f2b6" x="276.741818" y="206.490606" style="fill: #2ca02c; stroke: #2ca02c"/>
     <use xlink:href="#mb34a24f2b6" x="297.032727" y="269.98982" style="fill: #2ca02c; stroke: #2ca02c"/>
     <use xlink:href="#mb34a24f2b6" x="317.323636" y="291.057081" style="fill: #2ca02c; stroke: #2ca02c"/>
     <use xlink:href="#mb34a24f2b6" x="337.614545" y="295.020985" style="fill: #2ca02c; stroke: #2ca02c"/>
     <use xlink:href="#mb34a24f2b6" x="357.905455" y="295.458145" style="fill: #2ca02c; stroke: #2ca02c"/>
     <use xlink:href="#mb34a24f2b6" x="378.196364" y="295.486842" style="fill: #2ca02c; stroke: #2ca02c"/>
     <use xlink:href="#mb34a24f2b6" x="398.487273" y="295.487973" style="fill: #2ca02c; stroke: #2ca02c"/>
    </g>
   </g>
   <g id="PathCollection_4">
    <defs>
     <path id="mbeb2fd6b2d" d="M 0 3 
C 0.795609 3 1.55874 2.683901 2.12132 2.12132 
C 2.683901 1.55874 3 0.795609 3 0 
C 3 -0.795609 2.683901 -1.55874 2.12132 -2.12132 
C 1.55874 -2.683901 0.795609 -3 0 -3 
C -0.795609 -3 -1.55874 -2.683901 -2.12132 -2.12132 
C -2.683901 -1.55874 -3 -0.795609 -3 0 
C -3 0.795609 -2.683901 1.55874 -2.12132 2.12132 
C -1.55874 2.683901 -0.795609 3 0 3 
z
" style="stroke: #d62728"/>
    </defs>
    <g clip-path="url(#p955c17e193)">
     <use xlink:href="#mbeb2fd6b2d" x="73.832727" y="295.406845" style="fill: #d62728; stroke: #d62728"/>
     <use xlink:href="#mbeb2fd6b2d" x="94.123636" y="294.958802" style="fill: #d62728; stroke: #d62728"/>
     <use xlink:href="#mbeb2fd6b2d" x="114.414545" y="292.800512" style="fill: #d62728; stroke: #d62728"/>
     <use xlink:href="#mbeb2fd6b2d" x="134.705455" y="284.858777" style="fill: #d62728; stroke: #d62728"/>
     <use xlink:href="#mbeb2fd6b2d" x="154.996364" y="262.747688" style="fill: #d62728; stroke: #d62728"/>
     <use xlink:href="#mbeb2fd6b2d" x="175.287273" y="216.948075" style="fill: #d62728; stroke: #d62728"/>
     <use xlink:href="#mbeb2fd6b2d" x="195.578182" y="148.756103" style="fill: #d62728; stroke: #d62728"/>
     <use xlink:href="#mbeb2fd6b2d" x="215.869091" y="81.994349" style="fill: #d62728; stroke: #d62728"/>
     <use xlink:href="#mbeb2fd6b2d" x="236.16" y="53.568" style="fill: #d62728; stroke: #d62728"/>
     <use xlink:href="#mbeb2fd6b2d" x="256.450909" y="81.994349" style="fill: #d62728; stroke: #d62728"/>
     <use xlink:href="#mbeb2fd6b2d" x="276.741818" y="148.756103" style="fill: #d62728; stroke: #d62728"/>
     <use xlink:href="#mbeb2fd6b2d" x="297.032727" y="216.948075" style="fill: #d62728; stroke: #d62728"/>
     <use xlink:href="#mbeb2fd6b2d" x="317.323636" y="262.747688" style="fill: #d62728; stroke: #d62728"/>
     <use xlink:href="#mbeb2fd6b2d" x="337.614545" y="284.858777" style="fill: #d62728; stroke: #d62728"/>
     <use xlink:href="#mbeb2fd6b2d" x="357.905455" y="292.800512" style="fill: #d62728; stroke: #d62728"/>
     <use xlink:href="#mbeb2fd6b2d" x="378.196364" y="294.958802" style="fill: #d62728; stroke: #d62728"/>
     <use xlink:href="#mbeb2fd6b2d" x="398.487273" y="295.406845" style="fill: #d62728; stroke: #d62728"/>
    </g>
   </g>
   <g id="matplotlib.axis_1">
    <g id="xtick_1">
     <g id="line2d_1">
      <path d="M 73.832727 307.584 
L 73.832727 41.472 
" clip-path="url(#p955c17e193)" style="fill: none; stroke: #b0b0b0; stroke-width: 0.8; stroke-linecap: square"/>
     </g>
     <g id="line2d_2">
      <defs>
       <path id="m0471fe6ba4" d="M 0 0 
L 0 3.5 
" style="stroke: #000000; stroke-width: 0.8"/>
      </defs>
      <g>
       <use xlink:href="#m0471fe6ba4" x="73.832727" y="295.488" style="stroke: #000000; stroke-width: 0.8"/>
      </g>
     </g>
     <g id="text_1">
      <!-- −8 -->
      <g transform="translate(66.461634 310.086437) scale(0.1 -0.1)">
       <defs>
        <path id="DejaVuSans-2212" d="M 678 2272 
L 4684 2272 
L 4684 1741 
L 678 1741 
L 678 2272 
z
" transform="scale(0.015625)"/>
        <path id="DejaVuSans-38" d="M 2034 2216 
Q 1584 2216 1326 1975 
Q 1069 1734 1069 1313 
Q 1069 891 1326 650 
Q 1584 409 2034 409 
Q 2484 409 2743 651 
Q 3003 894 3003 1313 
Q 3003 1734 2745 1975 
Q 2488 2216 2034 2216 
z
M 1403 2484 
Q 997 2584 770 2862 
Q 544 3141 544 3541 
Q 544 4100 942 4425 
Q 1341 4750 2034 4750 
Q 2731 4750 3128 4425 
Q 3525 4100 3525 3541 
Q 3525 3141 3298 2862 
Q 3072 2584 2669 2484 
Q 3125 2378 3379 2068 
Q 3634 1759 3634 1313 
Q 3634 634 3220 271 
Q 2806 -91 2034 -91 
Q 1263 -91 848 271 
Q 434 634 434 1313 
Q 434 1759 690 2068 
Q 947 2378 1403 2484 
z
M 1172 3481 
Q 1172 3119 1398 2916 
Q 1625 2713 2034 2713 
Q 2441 2713 2670 2916 
Q 2900 3119 2900 3481 
Q 2900 3844 2670 4047 
Q 2441 4250 2034 4250 
Q 1625 4250 1398 4047 
Q 1172 3844 1172 3481 
z
" transform="scale(0.015625)"/>
       </defs>
       <use xlink:href="#DejaVuSans-2212"/>
       <use xlink:href="#DejaVuSans-38" x="83.789062"/>
      </g>
     </g>
    </g>
    <g id="xtick_2">
     <g id="line2d_3">
      <path d="M 114.414545 307.584 
L 114.414545 41.472 
" clip-path="url(#p955c17e193)" style="fill: none; stroke: #b0b0b0; stroke-width: 0.8; stroke-linecap: square"/>
     </g>
     <g id="line2d_4">
      <g>
       <use xlink:href="#m0471fe6ba4" x="114.414545" y="295.488" style="stroke: #000000; stroke-width: 0.8"/>
      </g>
     </g>
     <g id="text_2">
      <!-- −6 -->
      <g transform="translate(107.043452 310.086437) scale(0.1 -0.1)">
       <defs>
        <path id="DejaVuSans-36" d="M 2113 2584 
Q 1688 2584 1439 2293 
Q 1191 2003 1191 1497 
Q 1191 994 1439 701 
Q 1688 409 2113 409 
Q 2538 409 2786 701 
Q 3034 994 3034 1497 
Q 3034 2003 2786 2293 
Q 2538 2584 2113 2584 
z
M 3366 4563 
L 3366 3988 
Q 3128 4100 2886 4159 
Q 2644 4219 2406 4219 
Q 1781 4219 1451 3797 
Q 1122 3375 1075 2522 
Q 1259 2794 1537 2939 
Q 1816 3084 2150 3084 
Q 2853 3084 3261 2657 
Q 3669 2231 3669 1497 
Q 3669 778 3244 343 
Q 2819 -91 2113 -91 
Q 1303 -91 875 529 
Q 447 1150 447 2328 
Q 447 3434 972 4092 
Q 1497 4750 2381 4750 
Q 2619 4750 2861 4703 
Q 3103 4656 3366 4563 
z
" transform="scale(0.015625)"/>
       </defs>
       <use xlink:href="#DejaVuSans-2212"/>
       <use xlink:href="#DejaVuSans-36" x="83.789062"/>
      </g>
     </g>
    </g>
    <g id="xtick_3">
     <g id="line2d_5">
      <path d="M 154.996364 307.584 
L 154.996364 41.472 
" clip-path="url(#p955c17e193)" style="fill: none; stroke: #b0b0b0; stroke-width: 0.8; stroke-linecap: square"/>
     </g>
     <g id="line2d_6">
      <g>
       <use xlink:href="#m0471fe6ba4" x="154.996364" y="295.488" style="stroke: #000000; stroke-width: 0.8"/>
      </g>
     </g>
     <g id="text_3">
      <!-- −4 -->
      <g transform="translate(147.62527 310.086437) scale(0.1 -0.1)">
       <defs>
        <path id="DejaVuSans-34" d="M 2419 4116 
L 825 1625 
L 2419 1625 
L 2419 4116 
z
M 2253 4666 
L 3047 4666 
L 3047 1625 
L 3713 1625 
L 3713 1100 
L 3047 1100 
L 3047 0 
L 2419 0 
L 2419 1100 
L 313 1100 
L 313 1709 
L 2253 4666 
z
" transform="scale(0.015625)"/>
       </defs>
       <use xlink:href="#DejaVuSans-2212"/>
       <use xlink:href="#DejaVuSans-34" x="83.789062"/>
      </g>
     </g>
    </g>
    <g id="xtick_4">
     <g id="line2d_7">
      <path d="M 195.578182 307.584 
L 195.578182 41.472 
" clip-path="url(#p955c17e193)" style="fill: none; stroke: #b0b0b0; stroke-width: 0.8; stroke-linecap: square"/>
     </g>
     <g id="line2d_8">
      <g>
       <use xlink:href="#m0471fe6ba4" x="195.578182" y="295.488" style="stroke: #000000; stroke-width: 0.8"/>
      </g>
     </g>
     <g id="text_4">
      <!-- −2 -->
      <g transform="translate(188.207088 310.086437) scale(0.1 -0.1)">
       <defs>
        <path id="DejaVuSans-32" d="M 1228 531 
L 3431 531 
L 3431 0 
L 469 0 
L 469 531 
Q 828 903 1448 1529 
Q 2069 2156 2228 2338 
Q 2531 2678 2651 2914 
Q 2772 3150 2772 3378 
Q 2772 3750 2511 3984 
Q 2250 4219 1831 4219 
Q 1534 4219 1204 4116 
Q 875 4013 500 3803 
L 500 4441 
Q 881 4594 1212 4672 
Q 1544 4750 1819 4750 
Q 2544 4750 2975 4387 
Q 3406 4025 3406 3419 
Q 3406 3131 3298 2873 
Q 3191 2616 2906 2266 
Q 2828 2175 2409 1742 
Q 1991 1309 1228 531 
z
" transform="scale(0.015625)"/>
       </defs>
       <use xlink:href="#DejaVuSans-2212"/>
       <use xlink:href="#DejaVuSans-32" x="83.789062"/>
      </g>
     </g>
    </g>
    <g id="xtick_5">
     <g id="line2d_9">
      <path d="M 236.16 307.584 
L 236.16 41.472 
" clip-path="url(#p955c17e193)" style="fill: none; stroke: #b0b0b0; stroke-width: 0.8; stroke-linecap: square"/>
     </g>
     <g id="line2d_10">
      <g>
       <use xlink:href="#m0471fe6ba4" x="236.16" y="295.488" style="stroke: #000000; stroke-width: 0.8"/>
      </g>
     </g>
     <g id="text_5">
      <!-- 0 -->
      <g transform="translate(232.97875 310.086437) scale(0.1 -0.1)">
       <defs>
        <path id="DejaVuSans-30" d="M 2034 4250 
Q 1547 4250 1301 3770 
Q 1056 3291 1056 2328 
Q 1056 1369 1301 889 
Q 1547 409 2034 409 
Q 2525 409 2770 889 
Q 3016 1369 3016 2328 
Q 3016 3291 2770 3770 
Q 2525 4250 2034 4250 
z
M 2034 4750 
Q 2819 4750 3233 4129 
Q 3647 3509 3647 2328 
Q 3647 1150 3233 529 
Q 2819 -91 2034 -91 
Q 1250 -91 836 529 
Q 422 1150 422 2328 
Q 422 3509 836 4129 
Q 1250 4750 2034 4750 
z
" transform="scale(0.015625)"/>
       </defs>
       <use xlink:href="#DejaVuSans-30"/>
      </g>
     </g>
    </g>
    <g id="xtick_6">
     <g id="line2d_11">
      <path d="M 276.741818 307.584 
L 276.741818 41.472 
" clip-path="url(#p955c17e193)" style="fill: none; stroke: #b0b0b0; stroke-width: 0.8; stroke-linecap: square"/>
     </g>
     <g id="line2d_12">
      <g>
       <use xlink:href="#m0471fe6ba4" x="276.741818" y="295.488" style="stroke: #000000; stroke-width: 0.8"/>
      </g>
     </g>
     <g id="text_6">
      <!-- 2 -->
      <g transform="translate(273.560568 310.086437) scale(0.1 -0.1)">
       <use xlink:href="#DejaVuSans-32"/>
      </g>
     </g>
    </g>
    <g id="xtick_7">
     <g id="line2d_13">
      <path d="M 317.323636 307.584 
L 317.323636 41.472 
" clip-path="url(#p955c17e193)" style="fill: none; stroke: #b0b0b0; stroke-width: 0.8; stroke-linecap: square"/>
     </g>
     <g id="line2d_14">
      <g>
       <use xlink:href="#m0471fe6ba4" x="317.323636" y="295.488" style="stroke: #000000; stroke-width: 0.8"/>
      </g>
     </g>
     <g id="text_7">
      <!-- 4 -->
      <g transform="translate(314.142386 310.086437) scale(0.1 -0.1)">
       <use xlink:href="#DejaVuSans-34"/>
      </g>
     </g>
    </g>
    <g id="xtick_8">
     <g id="line2d_15">
      <path d="M 357.905455 307.584 
L 357.905455 41.472 
" clip-path="url(#p955c17e193)" style="fill: none; stroke: #b0b0b0; stroke-width: 0.8; stroke-linecap: square"/>
     </g>
     <g id="line2d_16">
      <g>
       <use xlink:href="#m0471fe6ba4" x="357.905455" y="295.488" style="stroke: #000000; stroke-width: 0.8"/>
      </g>
     </g>
     <g id="text_8">
      <!-- 6 -->
      <g transform="translate(354.724205 310.086437) scale(0.1 -0.1)">
       <use xlink:href="#DejaVuSans-36"/>
      </g>
     </g>
    </g>
    <g id="xtick_9">
     <g id="line2d_17">
      <path d="M 398.487273 307.584 
L 398.487273 41.472 
" clip-path="url(#p955c17e193)" style="fill: none; stroke: #b0b0b0; stroke-width: 0.8; stroke-linecap: square"/>
     </g>
     <g id="line2d_18">
      <g>
       <use xlink:href="#m0471fe6ba4" x="398.487273" y="295.488" style="stroke: #000000; stroke-width: 0.8"/>
      </g>
     </g>
     <g id="text_9">
      <!-- 8 -->
      <g transform="translate(395.306023 310.086437) scale(0.1 -0.1)">
       <use xlink:href="#DejaVuSans-38"/>
      </g>
     </g>
    </g>
   </g>
   <g id="matplotlib.axis_2">
    <g id="ytick_1">
     <g id="line2d_19">
      <path d="M 57.6 295.488 
L 414.72 295.488 
" clip-path="url(#p955c17e193)" style="fill: none; stroke: #b0b0b0; stroke-width: 0.8; stroke-linecap: square"/>
     </g>
     <g id="line2d_20">
      <defs>
       <path id="m652f75ebb7" d="M 0 0 
L -3.5 0 
" style="stroke: #000000; stroke-width: 0.8"/>
      </defs>
      <g>
       <use xlink:href="#m652f75ebb7" x="236.16" y="295.488" style="stroke: #000000; stroke-width: 0.8"/>
      </g>
     </g>
     <g id="text_10">
      <!-- 0.0 -->
      <g transform="translate(213.256875 299.287219) scale(0.1 -0.1)">
       <defs>
        <path id="DejaVuSans-2e" d="M 684 794 
L 1344 794 
L 1344 0 
L 684 0 
L 684 794 
z
" transform="scale(0.015625)"/>
       </defs>
       <use xlink:href="#DejaVuSans-30"/>
       <use xlink:href="#DejaVuSans-2e" x="63.623047"/>
       <use xlink:href="#DejaVuSans-30" x="95.410156"/>
      </g>
     </g>
    </g>
    <g id="ytick_2">
     <g id="line2d_21">
      <path d="M 57.6 247.104 
L 414.72 247.104 
" clip-path="url(#p955c17e193)" style="fill: none; stroke: #b0b0b0; stroke-width: 0.8; stroke-linecap: square"/>
     </g>
     <g id="line2d_22">
      <g>
       <use xlink:href="#m652f75ebb7" x="236.16" y="247.104" style="stroke: #000000; stroke-width: 0.8"/>
      </g>
     </g>
     <g id="text_11">
      <!-- 0.2 -->
      <g transform="translate(213.256875 250.903219) scale(0.1 -0.1)">
       <use xlink:href="#DejaVuSans-30"/>
       <use xlink:href="#DejaVuSans-2e" x="63.623047"/>
       <use xlink:href="#DejaVuSans-32" x="95.410156"/>
      </g>
     </g>
    </g>
    <g id="ytick_3">
     <g id="line2d_23">
      <path d="M 57.6 198.72 
L 414.72 198.72 
" clip-path="url(#p955c17e193)" style="fill: none; stroke: #b0b0b0; stroke-width: 0.8; stroke-linecap: square"/>
     </g>
     <g id="line2d_24">
      <g>
       <use xlink:href="#m652f75ebb7" x="236.16" y="198.72" style="stroke: #000000; stroke-width: 0.8"/>
      </g>
     </g>
     <g id="text_12">
      <!-- 0.4 -->
      <g transform="translate(213.256875 202.519219) scale(0.1 -0.1)">
       <use xlink:href="#DejaVuSans-30"/>
       <use xlink:href="#DejaVuSans-2e" x="63.623047"/>
       <use xlink:href="#DejaVuSans-34" x="95.410156"/>
      </g>
     </g>
    </g>
    <g id="ytick_4">
     <g id="line2d_25">
      <path d="M 57.6 150.336 
L 414.72 150.336 
" clip-path="url(#p955c17e193)" style="fill: none; stroke: #b0b0b0; stroke-width: 0.8; stroke-linecap: square"/>
     </g>
     <g id="line2d_26">
      <g>
       <use xlink:href="#m652f75ebb7" x="236.16" y="150.336" style="stroke: #000000; stroke-width: 0.8"/>
      </g>
     </g>
     <g id="text_13">
      <!-- 0.6 -->
      <g transform="translate(213.256875 154.135219) scale(0.1 -0.1)">
       <use xlink:href="#DejaVuSans-30"/>
       <use xlink:href="#DejaVuSans-2e" x="63.623047"/>
       <use xlink:href="#DejaVuSans-36" x="95.410156"/>
      </g>
     </g>
    </g>
    <g id="ytick_5">
     <g id="line2d_27">
      <path d="M 57.6 101.952 
L 414.72 101.952 
" clip-path="url(#p955c17e193)" style="fill: none; stroke: #b0b0b0; stroke-width: 0.8; stroke-linecap: square"/>
     </g>
     <g id="line2d_28">
      <g>
       <use xlink:href="#m652f75ebb7" x="236.16" y="101.952" style="stroke: #000000; stroke-width: 0.8"/>
      </g>
     </g>
     <g id="text_14">
      <!-- 0.8 -->
      <g transform="translate(213.256875 105.751219) scale(0.1 -0.1)">
       <use xlink:href="#DejaVuSans-30"/>
       <use xlink:href="#DejaVuSans-2e" x="63.623047"/>
       <use xlink:href="#DejaVuSans-38" x="95.410156"/>
      </g>
     </g>
    </g>
    <g id="ytick_6">
     <g id="line2d_29">
      <path d="M 57.6 53.568 
L 414.72 53.568 
" clip-path="url(#p955c17e193)" style="fill: none; stroke: #b0b0b0; stroke-width: 0.8; stroke-linecap: square"/>
     </g>
     <g id="line2d_30">
      <g>
       <use xlink:href="#m652f75ebb7" x="236.16" y="53.568" style="stroke: #000000; stroke-width: 0.8"/>
      </g>
     </g>
     <g id="text_15">
      <!-- 1.0 -->
      <g transform="translate(213.256875 57.367219) scale(0.1 -0.1)">
       <defs>
        <path id="DejaVuSans-31" d="M 794 531 
L 1825 531 
L 1825 4091 
L 703 3866 
L 703 4441 
L 1819 4666 
L 2450 4666 
L 2450 531 
L 3481 531 
L 3481 0 
L 794 0 
L 794 531 
z
" transform="scale(0.015625)"/>
       </defs>
       <use xlink:href="#DejaVuSans-31"/>
       <use xlink:href="#DejaVuSans-2e" x="63.623047"/>
       <use xlink:href="#DejaVuSans-30" x="95.410156"/>
      </g>
     </g>
    </g>
   </g>
   <g id="line2d_31">
    <path d="M 73.832727 295.488 
L 179.893309 295.377299 
L 184.337018 295.132528 
L 187.2792 294.757973 
L 189.551782 294.25136 
L 191.438836 293.608528 
L 193.102691 292.808251 
L 194.604218 291.839548 
L 196.004291 290.670929 
L 197.343491 289.260107 
L 198.642109 287.564713 
L 199.920436 285.525669 
L 201.198764 283.060918 
L 202.497382 280.057808 
L 203.816291 276.424584 
L 205.155491 272.062549 
L 206.535273 266.784844 
L 207.955636 260.44741 
L 209.436873 252.791451 
L 210.999273 243.500303 
L 212.642836 232.349793 
L 214.428436 218.660235 
L 216.416945 201.621075 
L 218.770691 179.422105 
L 222.423055 142.512452 
L 225.913091 108.024887 
L 227.9016 90.498636 
L 229.504582 78.243577 
L 230.843782 69.617214 
L 232.000364 63.524022 
L 232.994618 59.384305 
L 233.867127 56.637438 
L 234.617891 54.961302 
L 235.246909 54.057392 
L 235.774473 53.655317 
L 236.220873 53.570177 
L 236.646982 53.707306 
L 237.113673 54.101811 
L 237.641236 54.853763 
L 238.270255 56.170507 
L 239.000727 58.263466 
L 239.832655 61.365123 
L 240.786327 65.822686 
L 241.882036 72.061368 
L 243.140073 80.566877 
L 244.621309 92.180809 
L 246.4272 108.214317 
L 248.862109 132.00139 
L 255.618982 199.047514 
L 257.8104 218.000387 
L 259.717745 232.642075 
L 261.483055 244.524836 
L 263.126618 254.125855 
L 264.689018 261.98044 
L 266.190545 268.423928 
L 267.6312 273.664091 
L 269.031273 277.952856 
L 270.411055 281.485119 
L 271.770545 284.369815 
L 273.109745 286.707213 
L 274.448945 288.613368 
L 275.808436 290.173223 
L 277.208509 291.448673 
L 278.689745 292.497648 
L 280.272436 293.344733 
L 282.017455 294.024242 
L 284.026255 294.561438 
L 286.440873 294.966933 
L 289.545382 295.24954 
L 294.070255 295.417821 
L 303.038836 295.483369 
L 380.205164 295.488 
L 398.466982 295.488 
L 398.466982 295.488 
" clip-path="url(#p955c17e193)" style="fill: none; stroke: #1f77b4; stroke-width: 1.5; stroke-linecap: square"/>
   </g>
   <g id="line2d_32">
    <path d="M 73.832727 295.488 
L 156.599345 295.377032 
L 162.889527 295.131369 
L 167.049164 294.75588 
L 170.255127 294.249557 
L 172.913236 293.608957 
L 175.206109 292.83259 
L 177.275782 291.899246 
L 179.183127 290.794516 
L 180.968727 289.502098 
L 182.673164 287.992078 
L 184.316727 286.238268 
L 185.94 284.176786 
L 187.542982 281.776991 
L 189.145964 278.971455 
L 190.769236 275.671348 
L 192.4128 271.812539 
L 194.076655 267.328942 
L 195.781091 262.08796 
L 197.5464 255.924673 
L 199.372582 248.723583 
L 201.279927 240.278966 
L 203.288727 230.356579 
L 205.439564 218.587753 
L 207.793309 204.438338 
L 210.492 186.798565 
L 213.921164 162.800188 
L 221.733164 107.599896 
L 224.127491 92.573929 
L 226.095709 81.568646 
L 227.800145 73.253064 
L 229.281382 67.07701 
L 230.600291 62.480861 
L 231.777164 59.146193 
L 232.812 56.838823 
L 233.725091 55.303568 
L 234.536727 54.340907 
L 235.2672 53.802065 
L 235.916509 53.585418 
L 236.525236 53.607188 
L 237.154255 53.858251 
L 237.823855 54.379969 
L 238.554327 55.246398 
L 239.365964 56.568878 
L 240.279055 58.501639 
L 241.313891 61.24733 
L 242.470473 64.988984 
L 243.7488 69.909302 
L 245.189455 76.373463 
L 246.833018 84.823021 
L 248.720073 95.745988 
L 250.972364 110.154465 
L 253.934836 130.657266 
L 263.410691 197.309957 
L 266.0688 213.852102 
L 268.422545 227.143773 
L 270.593673 238.164963 
L 272.622764 247.353336 
L 274.570691 255.16659 
L 276.437455 261.754393 
L 278.243345 267.328942 
L 279.988364 272.016026 
L 281.713091 276.023455 
L 283.397236 279.388067 
L 285.061091 282.230584 
L 286.724945 284.644399 
L 288.409091 286.700813 
L 290.113527 288.434905 
L 291.858545 289.897355 
L 293.684727 291.138788 
L 295.612364 292.180617 
L 297.702327 293.055152 
L 300.015491 293.777471 
L 302.653309 294.361357 
L 305.757818 294.81354 
L 309.653673 295.145278 
L 314.990182 295.360292 
L 323.897891 295.466929 
L 353.380582 295.487986 
L 398.466982 295.488 
L 398.466982 295.488 
" clip-path="url(#p955c17e193)" style="fill: none; stroke: #ff7f0e; stroke-width: 1.5; stroke-linecap: square"/>
   </g>
   <g id="line2d_33">
    <path d="M 73.832727 295.487973 
L 123.6672 295.376683 
L 132.554618 295.130708 
L 138.418691 294.756213 
L 142.943564 294.25136 
L 146.677091 293.616796 
L 149.903345 292.847794 
L 152.784655 291.935552 
L 155.402182 290.876713 
L 157.837091 289.653975 
L 160.129964 288.255355 
L 162.321382 286.659132 
L 164.451927 284.829922 
L 166.5216 282.758131 
L 168.570982 280.387666 
L 170.600073 277.695681 
L 172.629164 274.628346 
L 174.658255 271.154188 
L 176.727927 267.16011 
L 178.817891 262.635163 
L 180.948436 257.485694 
L 183.139855 251.598951 
L 185.412436 244.842173 
L 187.766182 237.132662 
L 190.241673 228.244871 
L 192.8592 218.000387 
L 195.699927 205.955822 
L 198.845018 191.619379 
L 202.578545 173.508763 
L 208.320873 144.37754 
L 213.982036 116.029346 
L 217.248873 100.789717 
L 219.886691 89.502435 
L 222.159273 80.714906 
L 224.168073 73.796485 
L 225.973964 68.339022 
L 227.617527 64.053512 
L 229.098764 60.782604 
L 230.458255 58.296735 
L 231.696 56.477593 
L 232.832291 55.189213 
L 233.867127 54.339038 
L 234.8208 53.831307 
L 235.7136 53.597271 
L 236.586109 53.59467 
L 237.458618 53.815599 
L 238.351418 54.272411 
L 239.305091 55.016677 
L 240.339927 56.120963 
L 241.455927 57.653074 
L 242.673382 59.720337 
L 243.992291 62.413512 
L 245.432945 65.875101 
L 247.015636 70.274049 
L 248.760655 75.80253 
L 250.708582 82.745005 
L 252.879709 91.336351 
L 255.375491 102.156788 
L 258.358255 116.127438 
L 262.355564 136.005078 
L 272.785091 188.351808 
L 276.234545 204.251883 
L 279.257891 217.171125 
L 282.017455 228.016378 
L 284.614691 237.341186 
L 287.069891 245.34711 
L 289.423636 252.283233 
L 291.696218 258.306369 
L 293.907927 263.553782 
L 296.079055 268.142422 
L 298.2096 272.134051 
L 300.319855 275.621278 
L 302.409818 278.651471 
L 304.499782 281.294969 
L 306.610036 283.607349 
L 308.740582 285.614298 
L 310.911709 287.357332 
L 313.164 288.881191 
L 315.517745 290.204299 
L 318.013527 291.349563 
L 320.691927 292.330697 
L 323.613818 293.160995 
L 326.880655 293.853811 
L 330.634473 294.416539 
L 335.098473 294.853702 
L 340.739345 295.172098 
L 348.591927 295.375754 
L 362.146255 295.472225 
L 398.466982 295.487973 
L 398.466982 295.487973 
" clip-path="url(#p955c17e193)" style="fill: none; stroke: #2ca02c; stroke-width: 1.5; stroke-linecap: square"/>
   </g>
   <g id="line2d_34">
    <path d="M 73.832727 295.406845 
L 87.853745 295.183498 
L 96.66 294.830688 
L 103.295127 294.350231 
L 108.733091 293.739415 
L 113.4 292.995479 
L 117.519055 292.117096 
L 121.232291 291.10166 
L 124.661455 289.935607 
L 127.867418 288.611148 
L 130.890764 287.121889 
L 133.772073 285.455372 
L 136.551927 283.590575 
L 139.250618 281.512091 
L 141.888436 279.199773 
L 144.505964 276.606248 
L 147.082909 273.738417 
L 149.659855 270.535826 
L 152.257091 266.947362 
L 154.854327 262.976269 
L 157.492145 258.532445 
L 160.170545 253.579907 
L 162.909818 248.041888 
L 165.730255 241.830193 
L 168.652145 234.845803 
L 171.695782 226.980655 
L 174.881455 218.121251 
L 178.290327 207.967846 
L 181.983273 196.252621 
L 186.1632 182.226977 
L 191.317091 164.107907 
L 206.190327 111.307553 
L 209.883273 99.318522 
L 213.008073 89.900452 
L 215.787927 82.208163 
L 218.283709 75.93647 
L 220.556291 70.805798 
L 222.646255 66.616069 
L 224.594182 63.196141 
L 226.400073 60.464157 
L 228.084218 58.311025 
L 229.646618 56.663979 
L 231.107564 55.435664 
L 232.487345 54.556667 
L 233.806255 53.974567 
L 235.064291 53.656164 
L 236.302036 53.569482 
L 237.539782 53.707789 
L 238.777527 54.070701 
L 240.055855 54.680203 
L 241.395055 55.572544 
L 242.795127 56.780019 
L 244.276364 58.358337 
L 245.859055 60.379621 
L 247.5432 62.900391 
L 249.349091 66.012885 
L 251.297018 69.825032 
L 253.407273 74.45885 
L 255.700145 80.047242 
L 258.216218 86.785255 
L 260.996073 94.883543 
L 264.161455 104.815539 
L 267.874691 117.229282 
L 272.703927 134.205584 
L 287.820655 187.896398 
L 292.020873 201.681798 
L 295.7544 213.188834 
L 299.183564 223.052059 
L 302.409818 231.667212 
L 305.473745 239.22849 
L 308.415927 245.911498 
L 311.276945 251.8684 
L 314.0568 257.15286 
L 316.796073 261.888117 
L 319.474473 266.081887 
L 322.132582 269.836913 
L 324.7704 273.18389 
L 327.408218 276.175917 
L 330.066327 278.856324 
L 332.744727 281.242984 
L 335.463709 283.369871 
L 338.243564 285.26401 
L 341.124873 286.957773 
L 344.107636 288.453637 
L 347.252727 289.781226 
L 350.600727 290.95036 
L 354.192218 291.966381 
L 358.108364 292.840556 
L 362.470909 293.582434 
L 367.442182 294.196254 
L 373.265673 294.684296 
L 380.428364 295.052127 
L 389.924509 295.303417 
L 398.466982 295.406682 
L 398.466982 295.406682 
" clip-path="url(#p955c17e193)" style="fill: none; stroke: #d62728; stroke-width: 1.5; stroke-linecap: square"/>
   </g>
   <g id="patch_3">
    <path d="M 236.16 307.584 
L 236.16 41.472 
" style="fill: none; stroke: #000000; stroke-width: 2; stroke-linejoin: miter; stroke-linecap: square"/>
   </g>
   <g id="patch_4">
    <path d="M 57.6 295.488 
L 414.72 295.488 
" style="fill: none; stroke: #000000; stroke-width: 2; stroke-linejoin: miter; stroke-linecap: square"/>
   </g>
   <g id="text_16">
    <!-- $e^{-\frac{(|B^m_{t; i}|-|B^m_{e; j}|)^2}{\sigma_1}}$ -->
    <g transform="translate(187.66 35.472) scale(0.2 -0.2)">
     <defs>
      <path id="DejaVuSans-Oblique-65" d="M 3078 2063 
Q 3088 2113 3092 2166 
Q 3097 2219 3097 2272 
Q 3097 2653 2873 2875 
Q 2650 3097 2266 3097 
Q 1838 3097 1509 2826 
Q 1181 2556 1013 2059 
L 3078 2063 
z
M 3578 1613 
L 903 1613 
Q 884 1494 878 1425 
Q 872 1356 872 1306 
Q 872 872 1139 634 
Q 1406 397 1894 397 
Q 2269 397 2603 481 
Q 2938 566 3225 728 
L 3116 159 
Q 2806 34 2476 -28 
Q 2147 -91 1806 -91 
Q 1078 -91 686 257 
Q 294 606 294 1247 
Q 294 1794 489 2264 
Q 684 2734 1063 3103 
Q 1306 3334 1642 3459 
Q 1978 3584 2356 3584 
Q 2950 3584 3301 3228 
Q 3653 2872 3653 2272 
Q 3653 2128 3634 1964 
Q 3616 1800 3578 1613 
z
" transform="scale(0.015625)"/>
      <path id="DejaVuSans-28" d="M 1984 4856 
Q 1566 4138 1362 3434 
Q 1159 2731 1159 2009 
Q 1159 1288 1364 580 
Q 1569 -128 1984 -844 
L 1484 -844 
Q 1016 -109 783 600 
Q 550 1309 550 2009 
Q 550 2706 781 3412 
Q 1013 4119 1484 4856 
L 1984 4856 
z
" transform="scale(0.015625)"/>
      <path id="DejaVuSans-7c" d="M 1344 4891 
L 1344 -1509 
L 813 -1509 
L 813 4891 
L 1344 4891 
z
" transform="scale(0.015625)"/>
      <path id="DejaVuSans-Oblique-42" d="M 1081 4666 
L 2694 4666 
Q 3350 4666 3675 4422 
Q 4000 4178 4000 3688 
Q 4000 3238 3720 2911 
Q 3441 2584 2988 2516 
Q 3375 2428 3569 2181 
Q 3763 1934 3763 1522 
Q 3763 819 3242 409 
Q 2722 0 1819 0 
L 172 0 
L 1081 4666 
z
M 1234 2228 
L 903 519 
L 1919 519 
Q 2491 519 2800 781 
Q 3109 1044 3109 1522 
Q 3109 1891 2904 2059 
Q 2700 2228 2247 2228 
L 1234 2228 
z
M 1606 4147 
L 1331 2741 
L 2272 2741 
Q 2775 2741 3058 2959 
Q 3341 3178 3341 3566 
Q 3341 3869 3150 4008 
Q 2959 4147 2541 4147 
L 1606 4147 
z
" transform="scale(0.015625)"/>
      <path id="DejaVuSans-Oblique-6d" d="M 5747 2113 
L 5338 0 
L 4763 0 
L 5166 2094 
Q 5191 2228 5203 2325 
Q 5216 2422 5216 2491 
Q 5216 2772 5059 2928 
Q 4903 3084 4622 3084 
Q 4203 3084 3875 2770 
Q 3547 2456 3450 1953 
L 3066 0 
L 2491 0 
L 2900 2094 
Q 2925 2209 2937 2307 
Q 2950 2406 2950 2484 
Q 2950 2769 2794 2926 
Q 2638 3084 2363 3084 
Q 1938 3084 1609 2770 
Q 1281 2456 1184 1953 
L 800 0 
L 225 0 
L 909 3500 
L 1484 3500 
L 1375 2956 
Q 1609 3263 1923 3423 
Q 2238 3584 2597 3584 
Q 2978 3584 3223 3384 
Q 3469 3184 3519 2828 
Q 3781 3197 4126 3390 
Q 4472 3584 4856 3584 
Q 5306 3584 5551 3325 
Q 5797 3066 5797 2591 
Q 5797 2488 5784 2364 
Q 5772 2241 5747 2113 
z
" transform="scale(0.015625)"/>
      <path id="DejaVuSans-Oblique-74" d="M 2706 3500 
L 2619 3053 
L 1472 3053 
L 1100 1153 
Q 1081 1047 1072 975 
Q 1063 903 1063 863 
Q 1063 663 1183 572 
Q 1303 481 1569 481 
L 2150 481 
L 2053 0 
L 1503 0 
Q 991 0 739 200 
Q 488 400 488 806 
Q 488 878 497 964 
Q 506 1050 525 1153 
L 897 3053 
L 409 3053 
L 500 3500 
L 978 3500 
L 1172 4494 
L 1747 4494 
L 1556 3500 
L 2706 3500 
z
" transform="scale(0.015625)"/>
      <path id="DejaVuSans-3b" d="M 750 3309 
L 1409 3309 
L 1409 2516 
L 750 2516 
L 750 3309 
z
M 750 794 
L 1409 794 
L 1409 256 
L 897 -744 
L 494 -744 
L 750 256 
L 750 794 
z
" transform="scale(0.015625)"/>
      <path id="DejaVuSans-Oblique-69" d="M 1172 4863 
L 1747 4863 
L 1606 4134 
L 1031 4134 
L 1172 4863 
z
M 909 3500 
L 1484 3500 
L 800 0 
L 225 0 
L 909 3500 
z
" transform="scale(0.015625)"/>
      <path id="DejaVuSans-Oblique-6a" d="M 928 3500 
L 1503 3500 
L 813 -63 
L 809 -78 
Q 694 -675 544 -897 
Q 403 -1106 132 -1218 
Q -138 -1331 -506 -1331 
L -722 -1331 
L -628 -844 
L -481 -844 
Q -144 -844 -1 -703 
Q 141 -563 238 -63 
L 928 3500 
z
M 1197 4863 
L 1772 4863 
L 1631 4134 
L 1056 4134 
L 1197 4863 
z
" transform="scale(0.015625)"/>
      <path id="DejaVuSans-29" d="M 513 4856 
L 1013 4856 
Q 1481 4119 1714 3412 
Q 1947 2706 1947 2009 
Q 1947 1309 1714 600 
Q 1481 -109 1013 -844 
L 513 -844 
Q 928 -128 1133 580 
Q 1338 1288 1338 2009 
Q 1338 2731 1133 3434 
Q 928 4138 513 4856 
z
" transform="scale(0.015625)"/>
      <path id="DejaVuSans-Oblique-3c3" d="M 2219 3044 
Q 1744 3044 1422 2700 
Q 1081 2341 969 1747 
Q 844 1119 1044 756 
Q 1241 397 1706 397 
Q 2166 397 2503 759 
Q 2844 1122 2966 1747 
Q 3075 2319 2881 2700 
Q 2700 3044 2219 3044 
z
M 2309 3503 
L 4219 3500 
L 4106 2925 
L 3463 2925 
Q 3706 2438 3575 1747 
Q 3406 888 2884 400 
Q 2359 -91 1609 -91 
Q 856 -91 525 400 
Q 194 888 363 1747 
Q 528 2609 1050 3097 
Q 1484 3503 2309 3503 
z
" transform="scale(0.015625)"/>
     </defs>
     <use xlink:href="#DejaVuSans-Oblique-65" transform="translate(0 0.314328)"/>
     <use xlink:href="#DejaVuSans-2212" transform="translate(66.173333 38.595578) scale(0.7)"/>
     <use xlink:href="#DejaVuSans-28" transform="translate(124.825677 89.785156) scale(0.49)"/>
     <use xlink:href="#DejaVuSans-7c" transform="translate(143.942376 89.785156) scale(0.49)"/>
     <use xlink:href="#DejaVuSans-Oblique-42" transform="translate(160.451165 89.785156) scale(0.49)"/>
     <use xlink:href="#DejaVuSans-Oblique-6d" transform="translate(197.505106 108.574359) scale(0.343)"/>
     <use xlink:href="#DejaVuSans-Oblique-74" transform="translate(194.066888 76.386719) scale(0.343)"/>
     <use xlink:href="#DejaVuSans-3b" transform="translate(207.51557 76.386719) scale(0.343)"/>
     <use xlink:href="#DejaVuSans-Oblique-69" transform="translate(225.754193 76.386719) scale(0.343)"/>
     <use xlink:href="#DejaVuSans-7c" transform="translate(236.623675 89.785156) scale(0.49)"/>
     <use xlink:href="#DejaVuSans-2212" transform="translate(262.678851 89.785156) scale(0.49)"/>
     <use xlink:href="#DejaVuSans-7c" transform="translate(313.281878 89.785156) scale(0.49)"/>
     <use xlink:href="#DejaVuSans-Oblique-42" transform="translate(329.790667 89.785156) scale(0.49)"/>
     <use xlink:href="#DejaVuSans-Oblique-6d" transform="translate(366.844608 108.574359) scale(0.343)"/>
     <use xlink:href="#DejaVuSans-Oblique-65" transform="translate(363.40639 76.386719) scale(0.343)"/>
     <use xlink:href="#DejaVuSans-3b" transform="translate(384.508929 76.386719) scale(0.343)"/>
     <use xlink:href="#DejaVuSans-Oblique-6a" transform="translate(402.747552 76.386719) scale(0.343)"/>
     <use xlink:href="#DejaVuSans-7c" transform="translate(413.617035 89.785156) scale(0.49)"/>
     <use xlink:href="#DejaVuSans-29" transform="translate(430.125824 89.785156) scale(0.49)"/>
     <use xlink:href="#DejaVuSans-32" transform="translate(449.711468 108.542969) scale(0.343)"/>
     <use xlink:href="#DejaVuSans-Oblique-3c3" transform="translate(271.825677 20.558547) scale(0.49)"/>
     <use xlink:href="#DejaVuSans-31" transform="translate(302.881341 12.519484) scale(0.343)"/>
     <path d="M 124.825677 51.753391 
L 124.825677 56.128391 
L 472.874017 56.128391 
L 472.874017 51.753391 
L 124.825677 51.753391 
z
"/>
    </g>
   </g>
   <g id="legend_1">
    <g id="patch_5">
     <path d="M 354.62 108.1845 
L 407.72 108.1845 
Q 409.72 108.1845 409.72 106.1845 
L 409.72 48.472 
Q 409.72 46.472 407.72 46.472 
L 354.62 46.472 
Q 352.62 46.472 352.62 48.472 
L 352.62 106.1845 
Q 352.62 108.1845 354.62 108.1845 
z
" style="fill: #ffffff; opacity: 0.8; stroke: #cccccc; stroke-linejoin: miter"/>
    </g>
    <g id="line2d_35">
     <path d="M 356.62 54.570438 
L 366.62 54.570438 
L 376.62 54.570438 
" style="fill: none; stroke: #1f77b4; stroke-width: 1.5; stroke-linecap: square"/>
    </g>
    <g id="text_17">
     <!-- $\sigma$=1 -->
     <g transform="translate(384.62 58.070438) scale(0.1 -0.1)">
      <defs>
       <path id="DejaVuSans-3d" d="M 678 2906 
L 4684 2906 
L 4684 2381 
L 678 2381 
L 678 2906 
z
M 678 1631 
L 4684 1631 
L 4684 1100 
L 678 1100 
L 678 1631 
z
" transform="scale(0.015625)"/>
      </defs>
      <use xlink:href="#DejaVuSans-Oblique-3c3" transform="translate(0 0.09375)"/>
      <use xlink:href="#DejaVuSans-3d" transform="translate(63.378906 0.09375)"/>
      <use xlink:href="#DejaVuSans-31" transform="translate(147.167969 0.09375)"/>
     </g>
    </g>
    <g id="line2d_36">
     <path d="M 356.62 69.248563 
L 366.62 69.248563 
L 376.62 69.248563 
" style="fill: none; stroke: #ff7f0e; stroke-width: 1.5; stroke-linecap: square"/>
    </g>
    <g id="text_18">
     <!-- $\sigma$=2 -->
     <g transform="translate(384.62 72.748563) scale(0.1 -0.1)">
      <use xlink:href="#DejaVuSans-Oblique-3c3" transform="translate(0 0.78125)"/>
      <use xlink:href="#DejaVuSans-3d" transform="translate(63.378906 0.78125)"/>
      <use xlink:href="#DejaVuSans-32" transform="translate(147.167969 0.78125)"/>
     </g>
    </g>
    <g id="line2d_37">
     <path d="M 356.62 83.926688 
L 366.62 83.926688 
L 376.62 83.926688 
" style="fill: none; stroke: #2ca02c; stroke-width: 1.5; stroke-linecap: square"/>
    </g>
    <g id="text_19">
     <!-- $\sigma$=4 -->
     <g transform="translate(384.62 87.426688) scale(0.1 -0.1)">
      <use xlink:href="#DejaVuSans-Oblique-3c3" transform="translate(0 0.09375)"/>
      <use xlink:href="#DejaVuSans-3d" transform="translate(63.378906 0.09375)"/>
      <use xlink:href="#DejaVuSans-34" transform="translate(147.167969 0.09375)"/>
     </g>
    </g>
    <g id="line2d_38">
     <path d="M 356.62 98.604813 
L 366.62 98.604813 
L 376.62 98.604813 
" style="fill: none; stroke: #d62728; stroke-width: 1.5; stroke-linecap: square"/>
    </g>
    <g id="text_20">
     <!-- $\sigma$=8 -->
     <g transform="translate(384.62 102.104813) scale(0.1 -0.1)">
      <use xlink:href="#DejaVuSans-Oblique-3c3" transform="translate(0 0.78125)"/>
      <use xlink:href="#DejaVuSans-3d" transform="translate(63.378906 0.78125)"/>
      <use xlink:href="#DejaVuSans-38" transform="translate(147.167969 0.78125)"/>
     </g>
    </g>
   </g>
  </g>
 </g>
 <defs>
  <clipPath id="p955c17e193">
   <rect x="57.6" y="41.472" width="357.12" height="266.112"/>
  </clipPath>
 </defs>
</svg>
